<?xml version="1.0" encoding="UTF-8" standalone="no"?>
<!DOCTYPE svg PUBLIC "-//W3C//DTD SVG 1.1//EN" "http://www.w3.org/Graphics/SVG/1.1/DTD/svg11.dtd">
<svg width="100%" height="100%" viewBox="0 0 584 555" version="1.1" xmlns="http://www.w3.org/2000/svg" xmlns:xlink="http://www.w3.org/1999/xlink" xml:space="preserve" xmlns:serif="http://www.serif.com/" style="fill-rule:evenodd;clip-rule:evenodd;stroke-linejoin:round;stroke-miterlimit:2;">
    <g transform="matrix(1,0,0,1,-1253.99,-1064.09)">
        <g>
            <g transform="matrix(1,0,0,1,4.75692,-89.6675)">
                <path d="M1521.55,1567.04L1430.21,1674.48L1453.08,1529.84L1249.23,1528.16L1416.81,1414.94L1305.57,1310.24L1449.68,1317.38L1417.63,1194.42C1417.63,1194.42 1549.27,1273.14 1549.27,1273.14L1643.72,1153.76C1643.72,1153.76 1644.84,1284.5 1644.84,1284.5L1801.42,1260.92L1709.55,1384.34L1832.33,1435.76C1832.33,1435.76 1702.09,1489.48 1702.09,1489.48L1784.08,1668.77C1784.08,1668.77 1630.19,1571.86 1630.19,1571.86L1603.87,1707.88L1521.55,1567.04Z" style="fill-opacity:0;"/>
                <path d="M1521.55,1567.04L1430.21,1674.48L1453.08,1529.84L1249.23,1528.16L1416.81,1414.94L1305.57,1310.24L1449.68,1317.38L1417.63,1194.42C1417.63,1194.42 1549.27,1273.14 1549.27,1273.14L1643.72,1153.76C1643.72,1153.76 1644.84,1284.5 1644.84,1284.5L1801.42,1260.92L1709.55,1384.34L1832.33,1435.76C1832.33,1435.76 1702.09,1489.48 1702.09,1489.48L1784.08,1668.77C1784.08,1668.77 1630.19,1571.86 1630.19,1571.86L1603.87,1707.88L1521.55,1567.04ZM1702.09,1501.48L1657.03,1362.07L1708.2,1473.98L1801.06,1435.68L1690.76,1389.48L1774.4,1277.13L1644.33,1296.71L1632.84,1284.56L1632.81,1280.94L1632.01,1187.9L1558.68,1280.59L1549.27,1285.14L1543.07,1283.42L1539.43,1281.24L1436.64,1219.77L1465.42,1330.17L1337.52,1323.84L1435.95,1416.49L1287.96,1516.48L1467.11,1517.95L1448.73,1634.16L1523.36,1546.37L1598.14,1674.31L1614.67,1588.88L1636.63,1561.74L1640.89,1564.42L1756.44,1637.19L1691.18,1494.47L1702.09,1501.48Z" style="fill:white;"/>
            </g>
            <g transform="matrix(1,0,0,1,4.75692,-89.6675)">
                <path d="M1548.52,1531.62L1527.79,1496.15L1493.74,1536.2L1501.19,1489.07L1382.05,1488.1L1482.48,1420.24L1415.16,1356.88L1503.65,1361.26L1482.82,1281.36L1559.14,1327L1603.57,1270.85L1604.09,1332.25L1708.75,1316.5L1645.12,1401.98L1725.09,1435.47L1646.89,1467.72L1689.29,1560.44L1601.22,1504.98L1584.23,1592.73L1548.52,1531.62Z" style="fill-opacity:0;"/>
                <path d="M1548.52,1531.62L1527.79,1496.15L1493.74,1536.2L1501.19,1489.07L1382.05,1488.1L1482.48,1420.24L1415.16,1356.88L1503.65,1361.26L1482.82,1281.36L1559.14,1327L1603.57,1270.85L1604.09,1332.25L1708.75,1316.5L1645.12,1401.98L1725.09,1435.47L1646.89,1467.72L1689.29,1560.44L1601.22,1504.98L1584.23,1592.73L1548.52,1531.62ZM1558.88,1525.57L1578.51,1559.15L1592.77,1485.47L1661.65,1528.85L1630.79,1461.38C1630.79,1461.38 1693.83,1435.38 1693.83,1435.38L1626.33,1407.12L1681.73,1332.7L1592.21,1346.17L1591.86,1304.99L1562.02,1342.71L1501.83,1306.71L1519.38,1374.05L1447.12,1370.47L1501.63,1421.78L1420.77,1476.41L1515.22,1477.19L1512.27,1495.88L1529.6,1475.48L1558.88,1525.57Z" style="fill:white;"/>
            </g>
            <g transform="matrix(0.979408,0,0,0.965317,47.4055,67.7844)">
                <rect x="1231.95" y="1032.1" width="595.359" height="574.038" style="fill-opacity:0;"/>
                <path d="M1827.31,1032.1L1827.31,1606.14L1231.95,1606.14L1231.95,1032.1L1827.31,1032.1ZM1815.06,1044.53L1244.2,1044.53C1244.2,1127.16 1244.2,1593.7 1244.2,1593.7L1815.06,1593.7L1815.06,1044.53Z" style="fill:white;fill-opacity:0;"/>
            </g>
        </g>
    </g>
</svg>
