<?xml version="1.0" encoding="UTF-8" standalone="no"?>
<!DOCTYPE svg PUBLIC "-//W3C//DTD SVG 1.1//EN" "http://www.w3.org/Graphics/SVG/1.1/DTD/svg11.dtd">
<svg width="100%" height="100%" viewBox="0 0 2430 2309" version="1.1" xmlns="http://www.w3.org/2000/svg" xmlns:xlink="http://www.w3.org/1999/xlink" xml:space="preserve" xmlns:serif="http://www.serif.com/" style="fill-rule:evenodd;clip-rule:evenodd;stroke-linejoin:round;stroke-miterlimit:2;">
    <g transform="matrix(4.16667,0,0,4.16667,-6680.43,-4562.29)">
        <g transform="matrix(1,0,0,1,-281.893,32.1599)">
            <g>
                <g transform="matrix(1,0,0,1,631.209,-1.29843)">
                    <path d="M1434.97,1584.81L1457.84,1440.17L1253.99,1438.5L1421.56,1325.28L1310.33,1220.57L1454.44,1227.71L1422.39,1104.75L1554.03,1183.48L1648.47,1064.09L1649.6,1194.83L1806.18,1171.26L1714.31,1294.67L1837.09,1346.1L1706.85,1399.81L1788.84,1579.11L1634.95,1482.19L1608.62,1618.22L1526.3,1477.37L1434.97,1584.81ZM1472.02,1504.17L1529.94,1436.03L1597.17,1551.06L1618.05,1443.19L1733.56,1515.93L1674.66,1387.12L1774.55,1345.92L1676.73,1304.96L1752.14,1203.66L1625.84,1222.68L1625.06,1132.37L1559.78,1214.88L1460.41,1155.45L1485.91,1253.3L1374.23,1247.77L1459.86,1328.36L1331.44,1415.13L1485.89,1416.4L1472.02,1504.17Z" style="fill:white;"/>
                </g>
                <g transform="matrix(1,0,0,1,631.209,-1.29843)">
                    <path d="M1608.85,1192.8C1609.01,1210.99 1609.27,1242.09 1609.27,1242.09L1714.47,1226.25C1714.47,1226.25 1650.54,1312.13 1650.54,1312.13L1730.96,1345.81C1730.96,1345.81 1652.22,1378.28 1652.22,1378.28L1695.03,1471.89L1606.27,1416L1589.19,1504.26C1589.19,1504.26 1532.48,1407.22 1532.48,1407.22L1497.84,1447.96L1505.45,1399.83L1385.43,1398.84L1486.56,1330.52L1418.78,1266.73L1507.85,1271.14L1486.91,1190.79L1543.02,1224.35L1536.99,1231.98L1546.81,1226.62L1563.8,1236.78L1598.1,1193.42C1599.27,1194.58 1600.42,1195.72 1601.51,1196.8L1608.85,1192.8ZM1577.74,1437.1L1589.38,1377L1639.75,1408.72L1620.03,1365.6L1643.07,1356.09L1668.43,1345.64L1612.97,1322.41L1631.29,1297.8L1660.42,1258.66L1585.51,1269.93L1585.33,1248.25L1569.55,1268.18L1524.92,1241.49L1539.32,1296.72L1482.69,1293.92L1524.85,1333.61L1462.88,1375.48L1527.51,1376.01L1536.12,1365.88L1553.2,1395.11L1577.74,1437.1Z" style="fill:white;"/>
                </g>
            </g>
        </g>
    </g>
</svg>
