<?xml version="1.0" encoding="UTF-8" standalone="no"?><!DOCTYPE svg PUBLIC "-//W3C//DTD SVG 1.1//EN" "http://www.w3.org/Graphics/SVG/1.1/DTD/svg11.dtd"><svg width="100%" height="100%" viewBox="0 0 2084 2084" version="1.1" xmlns="http://www.w3.org/2000/svg" xmlns:xlink="http://www.w3.org/1999/xlink" xml:space="preserve" xmlns:serif="http://www.serif.com/" style="fill-rule:evenodd;clip-rule:evenodd;stroke-linecap:square;stroke-miterlimit:57;"><rect x="0" y="0" width="2083.33" height="2083.33" style="fill:#fff;fill-opacity:0;"/><g><path d="M500.403,458.527c172.473,-298.732 555.033,-401.239 853.765,-228.766c298.733,172.474 401.24,555.034 228.766,853.766c-172.473,298.733 -555.033,401.24 -853.766,228.766c-298.732,-172.473 -401.239,-555.033 -228.765,-853.766Z" style="fill:#fff;fill-opacity:0.15;stroke:#fff;stroke-width:25px;"/><path d="M1041.66,771.04c298.733,-172.473 681.292,-69.967 853.766,228.766c172.473,298.733 69.967,681.292 -228.766,853.766c-298.733,172.473 -681.292,69.967 -853.766,-228.766c-172.473,-298.733 -69.967,-681.292 228.766,-853.766Z" style="fill:#fff;fill-opacity:0.15;stroke:#fff;stroke-width:25px;"/><path d="M187.903,999.793c172.473,-298.733 555.033,-401.239 853.765,-228.766c298.733,172.474 401.24,555.033 228.766,853.766c-172.473,298.733 -555.033,401.24 -853.766,228.766c-298.732,-172.473 -401.239,-555.033 -228.765,-853.766Z" style="fill:#fff;fill-opacity:0.15;stroke:#fff;stroke-width:25px;"/></g></svg>