<?xml version="1.0" encoding="UTF-8" standalone="no"?>
<!DOCTYPE svg PUBLIC "-//W3C//DTD SVG 1.1//EN" "http://www.w3.org/Graphics/SVG/1.1/DTD/svg11.dtd">
<svg width="100%" height="100%" viewBox="0 0 2072 570" version="1.1" xmlns="http://www.w3.org/2000/svg" xmlns:xlink="http://www.w3.org/1999/xlink" xml:space="preserve" xmlns:serif="http://www.serif.com/" style="fill-rule:evenodd;clip-rule:evenodd;stroke-linejoin:round;stroke-miterlimit:2;">
    <g transform="matrix(1,0,0,1,-1165.65,-583.939)">
        <g transform="matrix(1,0,0,1,49.3848,81.2096)">
            <g transform="matrix(1,0,0,1,-62.7321,-97.2263)">
                <g transform="matrix(614.901,0,0,614.901,3290.03,1040.11)">
                </g>
                <text x="1178.99px" y="1040.12px" style="font-family:'Arial-BoldMT', 'Arial';font-weight:700;font-size:614.901px;fill:white;">Allos<tspan x="2521.83px 2743.29px " y="1040.12px 1040.12px ">ym</tspan></text>
                <path d="M2631.65,999.685C2627.15,1005.3 2621.92,1010.67 2615.96,1015.8C2591.54,1036.81 2555.41,1047.32 2507.58,1047.32C2464.14,1047.32 2429.71,1038.51 2404.29,1020.9C2379.07,1003.28 2362.56,979.365 2354.75,949.141L2439.42,936.23C2443.02,952.643 2450.33,965.154 2461.34,973.761C2472.35,982.167 2487.76,986.371 2507.58,986.371C2529.39,986.371 2545.81,982.368 2556.82,974.361C2564.22,968.757 2567.92,961.25 2567.92,951.843C2567.92,945.438 2565.92,940.133 2561.92,935.93C2557.72,931.927 2548.31,928.224 2533.7,924.821C2465.64,909.809 2422.51,896.097 2404.29,883.687C2379.07,866.473 2366.46,842.554 2366.46,811.929C2366.46,784.306 2377.37,761.087 2399.19,742.272C2421,723.457 2454.83,714.049 2500.67,714.049C2526.04,714.049 2547.62,716.451 2565.41,721.255L2526.03,721.255L2554.48,796.243C2551.28,791.684 2547.36,787.805 2542.7,784.607C2533.3,778.001 2519.78,774.698 2502.17,774.698C2479.95,774.698 2464.04,777.801 2454.43,784.006C2448.03,788.41 2444.82,794.114 2444.82,801.12C2444.82,807.125 2447.63,812.229 2453.23,816.432C2460.84,822.037 2487.06,829.943 2531.89,840.152C2548.31,843.873 2562.92,847.899 2575.72,852.232L2631.65,999.685ZM2565.41,721.255L2615.8,721.255L2637.74,786.36C2629.25,764.445 2615.98,747.447 2597.95,735.366C2589.07,729.418 2578.22,724.714 2565.41,721.255ZM2637.74,786.36C2639.2,790.134 2640.52,794.054 2641.7,798.12L2637.74,786.36ZM2641.7,798.12L2692.07,947.639L2766.53,721.255L2781.12,721.255L2781.12,919.609L2741.31,1028.11L2721.19,1083.65C2713.78,1102.27 2706.68,1116.48 2699.87,1126.29C2693.27,1136.09 2685.56,1144 2676.75,1150C2668.15,1156.21 2657.44,1161.01 2644.63,1164.42C2632.02,1167.82 2617.71,1169.52 2601.69,1169.52C2585.48,1169.52 2569.57,1167.82 2553.95,1164.42L2546.45,1098.36C2559.66,1100.96 2571.57,1102.27 2582.18,1102.27C2601.79,1102.27 2616.3,1096.46 2625.71,1084.85C2635.12,1073.44 2642.33,1058.83 2647.33,1041.02L2631.65,999.685C2645.61,982.28 2652.59,962.53 2652.59,940.433C2652.59,913.612 2643.79,892.695 2626.17,877.682C2614.85,868.269 2598.03,859.786 2575.72,852.232L2554.48,796.243C2557.88,801.1 2560.46,806.729 2562.22,813.13L2641.78,798.418C2641.76,798.318 2641.73,798.219 2641.7,798.12ZM2853.9,721.255L2858.88,721.255L2858.88,764.79C2886.7,730.963 2919.83,714.049 2958.26,714.049C2978.68,714.049 2996.39,718.253 3011.4,726.659C3026.42,735.066 3038.73,747.777 3048.33,764.79C3062.35,747.777 3077.46,735.066 3093.67,726.659C3109.89,718.253 3127.2,714.049 3145.61,714.049C3169.03,714.049 3188.85,718.853 3205.06,728.461C3221.28,737.868 3233.39,751.78 3241.39,770.195C3247.2,783.806 3250.1,805.824 3250.1,836.249L3250.1,1040.12L3165.73,1040.12L3165.73,857.866C3165.73,826.24 3162.83,805.824 3157.02,796.616C3149.22,784.607 3137.21,778.602 3120.99,778.602C3109.18,778.602 3098.08,782.205 3087.67,789.41C3077.26,796.616 3069.75,807.225 3065.15,821.236C3060.54,835.048 3058.24,856.965 3058.24,886.99L3058.24,1040.12L2973.87,1040.12L2973.87,865.372C2973.87,834.347 2972.37,814.331 2969.37,805.323C2966.37,796.316 2961.66,789.611 2955.26,785.207C2949.05,780.803 2940.55,778.602 2929.74,778.602C2916.73,778.602 2905.02,782.105 2894.61,789.11C2884.2,796.116 2876.7,806.224 2872.09,819.435C2867.69,832.646 2865.49,854.564 2865.49,885.188L2865.49,1040.12L2781.12,1040.12L2781.12,919.609L2853.9,721.255ZM2623.43,998.294L2570.19,857.941C2558.41,854.107 2545.11,850.522 2530.3,847.165L2530.3,847.164C2483.87,836.594 2456.84,828.025 2448.94,822.204L2448.91,822.186C2441.25,816.436 2437.63,809.335 2437.63,801.12C2437.63,791.725 2441.77,783.985 2450.44,778.021L2450.53,777.965C2460.94,771.243 2478.1,767.506 2502.17,767.506C2516.81,767.506 2528.84,769.732 2538.33,773.944L2518.5,721.668C2512.79,721.383 2506.84,721.241 2500.67,721.241C2457,721.241 2424.67,729.795 2403.88,747.719C2383.76,765.069 2373.65,786.456 2373.65,811.929C2373.65,840.016 2385.21,861.957 2408.34,877.745C2426.2,889.907 2468.55,903.086 2535.29,917.807L2535.33,917.816C2551.75,921.641 2562.16,926.222 2567.01,930.843L2567.13,930.97C2572.39,936.493 2575.12,943.426 2575.12,951.843C2575.12,963.65 2570.45,973.062 2561.1,980.137L2561.05,980.178C2549.07,988.885 2531.3,993.563 2507.58,993.563C2485.86,993.563 2469.04,988.69 2456.94,979.452L2456.91,979.427C2446.17,971.035 2438.5,959.37 2434.07,944.321L2363.94,955.014C2371.99,979.911 2386.8,999.908 2408.4,1015C2432.8,1031.9 2465.89,1040.13 2507.58,1040.13C2553.3,1040.13 2587.93,1030.43 2611.27,1010.34C2615.77,1006.48 2619.82,1002.46 2623.43,998.294ZM2600.51,728.447C2601,728.758 2601.48,729.073 2601.95,729.391C2606.27,732.284 2610.34,735.44 2614.15,738.859L2610.64,728.447L2600.51,728.447ZM2851.69,748.157L2788.31,920.887L2788.31,1032.92L2858.29,1032.92L2858.29,885.188C2858.29,853.498 2860.71,830.831 2865.28,817.114L2865.3,817.068C2870.46,802.268 2878.93,790.992 2890.59,783.144C2902.19,775.336 2915.24,771.41 2929.74,771.41C2942.31,771.41 2952.15,774.198 2959.36,779.301C2966.94,784.524 2972.64,792.381 2976.19,803.049C2979.31,812.4 2981.07,833.164 2981.07,865.372L2981.07,1032.92L3051.05,1032.92L3051.05,886.99C3051.05,855.932 3053.56,833.271 3058.32,818.978C3063.46,803.329 3071.95,791.547 3083.57,783.497C3095.26,775.409 3107.74,771.41 3120.99,771.41C3139.97,771.41 3153.92,778.642 3163.08,792.739L3163.11,792.781C3169.28,802.577 3172.92,824.218 3172.92,857.866L3172.92,1032.92C3172.92,1032.92 3242.91,1032.92 3242.91,1032.92L3242.91,836.249C3242.91,807.152 3240.33,786.064 3234.78,773.038C3227.43,756.129 3216.34,743.322 3201.42,734.665L3201.4,734.648C3186.19,725.637 3167.58,721.241 3145.61,721.241C3128.37,721.241 3112.16,725.173 3096.98,733.044C3081.56,741.042 3067.22,753.176 3053.89,769.362L3047.22,777.451L3042.07,768.327C3033.17,752.556 3021.8,740.727 3007.89,732.934C2993.88,725.086 2977.32,721.241 2958.26,721.241C2921.94,721.241 2890.73,737.393 2864.43,769.359L2851.69,784.857L2851.69,748.157ZM2773.93,918.331L2773.93,728.447L2771.73,728.447L2692.15,970.41L2636.97,806.621L2570.75,818.866L2581.26,846.573C2603.03,854.229 2619.52,862.801 2630.8,872.18L2630.84,872.209C2650.01,888.549 2659.78,911.238 2659.78,940.433C2659.78,962.827 2653.16,983.001 2639.81,1000.92L2654.89,1040.68L2654.25,1042.96C2648.95,1061.84 2641.25,1077.3 2631.3,1089.38C2620.65,1102.52 2604.38,1109.46 2582.18,1109.46C2573.8,1109.46 2564.63,1108.68 2554.68,1107.12C2554.68,1107.12 2560.51,1158.42 2560.51,1158.42C2574.01,1161.03 2587.74,1162.33 2601.69,1162.33C2617.01,1162.33 2630.7,1160.73 2642.77,1157.47L2642.78,1157.46C2654.64,1154.31 2664.58,1149.91 2672.62,1144.12L2672.7,1144.06C2680.79,1138.55 2687.84,1131.27 2693.94,1122.23L2693.96,1122.18C2700.52,1112.73 2707.33,1099.02 2714.47,1081.09L2734.55,1025.64L2773.93,918.331ZM1620.65,1040.12L1523.97,1040.12L1485.54,940.133L1309.6,940.133L1273.27,1040.12L1178.99,1040.12L1350.43,599.956L1444.41,599.956L1620.65,1040.12ZM1610.03,1032.92C1610.03,1032.92 1439.54,607.148 1439.54,607.148L1355.35,607.148C1337.37,653.321 1189.51,1032.92 1189.51,1032.92L1268.23,1032.92L1304.56,932.941L1490.48,932.941L1528.91,1032.92L1610.03,1032.92ZM1326.65,873.165L1396.3,681.797L1467.36,873.165L1326.65,873.165ZM1457.02,865.973L1396.37,702.64L1336.92,865.973L1457.02,865.973ZM1667.19,1040.12L1667.19,599.956L1751.56,599.956L1751.56,1040.12L1667.19,1040.12ZM1674.38,1032.92L1744.37,1032.92L1744.37,607.148C1744.37,607.148 1674.38,607.148 1674.38,607.148L1674.38,1032.92ZM1838.03,1040.12L1838.03,599.956L1922.4,599.956L1922.4,1040.12L1838.03,1040.12ZM1845.22,1032.92C1845.22,1032.92 1915.21,1032.92 1915.21,1032.92L1915.21,607.148L1845.22,607.148L1845.22,1032.92ZM1989.35,876.181C1989.35,848.158 1996.26,821.036 2010.07,794.815C2023.88,768.594 2043.4,748.577 2068.62,734.766C2094.04,720.955 2122.36,714.049 2153.59,714.049C2201.83,714.049 2241.36,729.762 2272.18,761.187C2303.01,792.413 2318.42,831.945 2318.42,879.784C2318.42,928.023 2302.81,968.056 2271.58,999.882C2240.56,1031.51 2201.43,1047.32 2154.19,1047.32C2124.96,1047.32 2097.04,1040.71 2070.42,1027.5C2044,1014.29 2023.88,994.978 2010.07,969.557C1996.26,943.936 1989.35,912.811 1989.35,876.181ZM1996.55,876.181C1996.55,911.459 2003.1,941.458 2016.39,966.134C2029.49,990.235 2048.57,1008.54 2073.62,1021.07C2099.23,1033.77 2126.08,1040.13 2154.19,1040.13C2199.35,1040.13 2236.79,1025.08 2266.45,994.845C2296.36,964.362 2311.23,925.987 2311.23,879.784C2311.23,833.997 2296.57,796.126 2267.06,766.232L2267.05,766.224C2237.57,736.169 2199.72,721.241 2153.59,721.241C2123.63,721.241 2096.45,727.832 2072.06,741.08C2048.09,754.208 2029.56,773.245 2016.43,798.167C2003.19,823.31 1996.55,849.311 1996.55,876.181ZM2068.63,880.685C2068.63,846.932 2076.95,821.18 2092.98,803.236C2109.43,784.802 2129.75,775.613 2153.89,775.613C2178.04,775.613 2198.26,784.813 2214.51,803.254C2230.53,821.207 2238.84,846.754 2238.84,880.084C2238.84,914.236 2230.52,940.18 2214.51,958.115C2198.26,976.557 2178.04,985.757 2153.89,985.757C2129.75,985.757 2109.43,976.568 2092.98,958.134C2076.95,940.189 2068.63,914.438 2068.63,880.685ZM2075.82,880.685C2075.82,912.311 2083.33,936.53 2098.34,953.344C2113.35,970.158 2131.87,978.565 2153.89,978.565C2175.91,978.565 2194.32,970.158 2209.13,953.344C2224.14,936.53 2231.65,912.11 2231.65,880.084C2231.65,848.859 2224.14,824.839 2209.13,808.026C2194.32,791.212 2175.91,782.805 2153.89,782.805C2131.87,782.805 2113.35,791.212 2098.34,808.026C2083.33,824.839 2075.82,849.059 2075.82,880.685Z" style="fill:white;"/>
            </g>
        </g>
    </g>
</svg>
